<svg xmlns="http://www.w3.org/2000/svg" width="1200" height="420" viewBox="0 0 1200 420">
  <rect width="1200" height="420" fill="#0a1f0a"/>
  <rect x="90"  y="175" width="130" height="55" rx="8" fill="#2ea44f" opacity="0.85"/>
  <text x="155" y="208" font-family="sans-serif" font-size="15" fill="#fff" text-anchor="middle">Code</text>
  <polygon points="220,202 245,188 245,216" fill="#2ea44f" opacity="0.8"/>
  <rect x="255" y="175" width="130" height="55" rx="8" fill="#2ea44f" opacity="0.85"/>
  <text x="320" y="208" font-family="sans-serif" font-size="15" fill="#fff" text-anchor="middle">Build</text>
  <polygon points="385,202 410,188 410,216" fill="#2ea44f" opacity="0.8"/>
  <rect x="420" y="175" width="130" height="55" rx="8" fill="#2ea44f" opacity="0.85"/>
  <text x="485" y="208" font-family="sans-serif" font-size="15" fill="#fff" text-anchor="middle">Test</text>
  <polygon points="550,202 575,188 575,216" fill="#2ea44f" opacity="0.8"/>
  <rect x="585" y="175" width="130" height="55" rx="8" fill="#2ea44f" opacity="0.85"/>
  <text x="650" y="208" font-family="sans-serif" font-size="15" fill="#fff" text-anchor="middle">Deploy</text>
  <polygon points="715,202 740,188 740,216" fill="#2ea44f" opacity="0.8"/>
  <rect x="750" y="175" width="130" height="55" rx="8" fill="#2ea44f" opacity="0.85"/>
  <text x="815" y="208" font-family="sans-serif" font-size="15" fill="#fff" text-anchor="middle">Monitor</text>
  <polygon points="880,202 905,188 905,216" fill="#2ea44f" opacity="0.8"/>
  <rect x="915" y="175" width="130" height="55" rx="8" fill="#2ea44f" opacity="0.85"/>
  <text x="980" y="208" font-family="sans-serif" font-size="15" fill="#fff" text-anchor="middle">Operate</text>
  <text x="600" y="390" font-family="sans-serif" font-size="32" fill="#ffffff" text-anchor="middle" font-weight="bold">DevOps</text>
  <text x="600" y="38" font-family="sans-serif" font-size="16" fill="#2ea44f" text-anchor="middle">Integración y Entrega Continua</text>
</svg>
