<svg xmlns="http://www.w3.org/2000/svg" width="1200" height="420" viewBox="0 0 1200 420">
  <rect width="1200" height="420" fill="#0d1b2a"/>
  <line x1="200" y1="210" x2="400" y2="120" stroke="#4a9eff" stroke-width="2" opacity="0.5"/>
  <line x1="200" y1="210" x2="400" y2="300" stroke="#4a9eff" stroke-width="2" opacity="0.5"/>
  <line x1="400" y1="120" x2="600" y2="210" stroke="#4a9eff" stroke-width="2" opacity="0.5"/>
  <line x1="400" y1="300" x2="600" y2="210" stroke="#4a9eff" stroke-width="2" opacity="0.5"/>
  <line x1="600" y1="210" x2="800" y2="120" stroke="#4a9eff" stroke-width="2" opacity="0.5"/>
  <line x1="600" y1="210" x2="800" y2="300" stroke="#4a9eff" stroke-width="2" opacity="0.5"/>
  <line x1="800" y1="120" x2="1000" y2="210" stroke="#4a9eff" stroke-width="2" opacity="0.5"/>
  <line x1="800" y1="300" x2="1000" y2="210" stroke="#4a9eff" stroke-width="2" opacity="0.5"/>
  <circle cx="200" cy="210" r="18" fill="#4a9eff" opacity="0.85"/>
  <circle cx="400" cy="120" r="13" fill="#4a9eff" opacity="0.65"/>
  <circle cx="400" cy="300" r="13" fill="#4a9eff" opacity="0.65"/>
  <circle cx="600" cy="210" r="18" fill="#4a9eff" opacity="0.85"/>
  <circle cx="800" cy="120" r="13" fill="#4a9eff" opacity="0.65"/>
  <circle cx="800" cy="300" r="13" fill="#4a9eff" opacity="0.65"/>
  <circle cx="1000" cy="210" r="18" fill="#4a9eff" opacity="0.85"/>
  <text x="600" y="390" font-family="sans-serif" font-size="32" fill="#ffffff" text-anchor="middle" font-weight="bold">Redes</text>
  <text x="600" y="38" font-family="sans-serif" font-size="16" fill="#4a9eff" text-anchor="middle">Infraestructura y Conectividad</text>
</svg>
